<?xml version="1.0" encoding="utf-8"?>
<!-- Generator: Adobe Illustrator 24.3.2, SVG Export Plug-In . SVG Version: 6.00 Build 0)  -->
<svg version="1.1" id="Layer_1" xmlns="http://www.w3.org/2000/svg" xmlns:xlink="http://www.w3.org/1999/xlink" x="0px" y="0px"
	 viewBox="0 0 477.7 73.5" style="enable-background:new 0 0 477.7 73.5;" xml:space="preserve">
<style type="text/css">
	.st0{fill:#EA3B2D;}
	.st1{fill:#4C4E4E;}
</style>
<g>
	<path class="st0" d="M71.9,15.4c3.3,0,5.9-2.7,5.9-5.9c0-3.3-2.6-5.9-5.9-5.9S66,6.2,66,9.5C66,12.7,68.7,15.4,71.9,15.4z"/>
	<path class="st0" d="M77.8,17.8H66.5c0.9,1.2,1.5,2.7,1.5,4.3v16.5c0,2.3-1.1,4.4-2.9,5.7v11.4c0,1.9,1.5,3.5,3.5,3.5
		c1.6,0,3-1.2,3.4-2.7c0.3,1.5,1.7,2.7,3.4,2.7c1.9,0,3.5-1.5,3.5-3.5V39.6c2-0.5,3.5-2.2,3.5-4.3v-13
		C82.2,19.8,80.2,17.8,77.8,17.8z"/>
	<path class="st0" d="M90.4,15.4c3.3,0,5.9-2.7,5.9-5.9c0-3.3-2.6-5.9-5.9-5.9s-5.9,2.6-5.9,5.9C84.5,12.7,87.1,15.4,90.4,15.4z"/>
	<path class="st0" d="M96.2,17.8H85c0.9,1.2,1.5,2.7,1.5,4.3v16.5c0,2.3-1.1,4.4-2.9,5.7v11.4c0,1.9,1.5,3.5,3.5,3.5
		c1.6,0,3-1.2,3.4-2.7c0.3,1.5,1.7,2.7,3.4,2.7c1.9,0,3.5-1.5,3.5-3.5V39.6c2-0.5,3.5-2.2,3.5-4.3v-13
		C100.7,19.8,98.7,17.8,96.2,17.8z"/>
	<path class="st0" d="M31.8,38.6V22.1c0-1.6,0.6-3.1,1.5-4.3h-11c-2.5,0-4.5,2-4.5,4.5v13c0,2.1,1.5,3.9,3.5,4.3v16.1
		c0,1.9,1.5,3.5,3.5,3.5c1.6,0,3-1.2,3.4-2.7c0.3,1.5,1.7,2.7,3.4,2.7c1.9,0,3.5-1.5,3.5-3.5V44.4C33,43.1,31.8,41,31.8,38.6z"/>
	<path class="st0" d="M28.1,15.4c3.3,0,5.9-2.7,5.9-5.9c0-3.3-2.6-5.9-5.9-5.9s-5.9,2.6-5.9,5.9C22.1,12.7,24.8,15.4,28.1,15.4z"/>
	<path class="st0" d="M14,38.6V22.1c0-1.6,0.6-3.1,1.5-4.3h-11c-2.5,0-4.5,2-4.5,4.5v13c0,2.1,1.5,3.9,3.5,4.3v16.1
		c0,1.9,1.5,3.5,3.5,3.5c1.6,0,3-1.2,3.4-2.7c0.3,1.5,1.7,2.7,3.4,2.7c1.9,0,3.5-1.5,3.5-3.5V44.4C15.3,43.1,14,41,14,38.6z"/>
	<path class="st0" d="M10.3,15.4c3.3,0,5.9-2.7,5.9-5.9c0-3.3-2.6-5.9-5.9-5.9C7,3.5,4.4,6.2,4.4,9.4C4.4,12.7,7,15.4,10.3,15.4z"/>
	<path class="st1" d="M58.5,43H60c2.5,0,4.5-2,4.5-4.5V22.1c0-2.5-2-4.5-4.5-4.5h-5.6l-4.5,5.7l-4.5-5.7h-5.6c-2.5,0-4.5,2-4.5,4.5
		v16.5c0,2.5,2,4.5,4.5,4.5h1.4c0,55.6,0-34.5,0,21.3c0,2.5,2,4.5,4.5,4.5c1.9,0,3.5-1.2,4.2-2.9c0.6,1.7,2.3,2.9,4.2,2.9
		c2.5,0,4.5-2,4.5-4.5C58.5,7.2,58.5,99,58.5,43z"/>
	<path class="st1" d="M57.2,7.3c0-4-3.3-7.3-7.3-7.3s-7.3,3.3-7.3,7.3c0,4.2,3.5,7.3,7.3,7.3S57.2,11.5,57.2,7.3z"/>
</g>
<g>
	<path class="st1" d="M413.5,57.4v-5.3h5.2v5.3H413.5z"/>
	<path class="st1" d="M428.3,57.8c-4.3,0-6.8-2.6-6.8-7.2V37.7c0-4.6,2.4-7.3,6.8-7.3s6.8,2.6,6.8,7.2v1.8h-4.4v-1.5
		c0-2.3-0.7-3.5-2.4-3.5c-1.6,0-2.4,1.3-2.4,3.5v12.4c0,2.3,0.7,3.5,2.4,3.5c1.6,0,2.4-1.2,2.4-3.5v-1.5h4.4v1.8
		C435.1,55.2,432.7,57.8,428.3,57.8z"/>
	<path class="st1" d="M444.5,57.8c-4.4,0-7.1-2.6-7.1-7.2V37.7c0-4.6,2.7-7.2,7.1-7.2s7.1,2.6,7.1,7.2v12.9
		C451.6,55.2,448.9,57.8,444.5,57.8z M447.2,37.9c0-2.4-1.1-3.5-2.7-3.5s-2.7,1.1-2.7,3.5v12.4c0,2.4,1.1,3.5,2.7,3.5
		s2.7-1.1,2.7-3.5V37.9z"/>
	<path class="st1" d="M473.3,57.4V37.9c0-2.4-0.8-3.5-2.4-3.5c-1.5,0-2.4,1.1-2.4,3.5v19.5h-4.4V37.9c0-2.4-0.8-3.5-2.4-3.5
		c-1.5,0-2.4,1.1-2.4,3.5v19.5h-4.4V30.9h4.2v1.7c0.5-1.2,2.2-2.1,3.7-2.1c2.5,0,3.8,0.8,4.6,2.5c0.8-1.6,2.4-2.5,4.6-2.5
		c4.2,0,5.7,2.6,5.7,7.2v19.7H473.3z"/>
</g>
<g>
	<path class="st1" d="M124.8,10.7v46.8h-7V10.7h-7.7V4.3h22.4v6.5h-7.7V10.7z"/>
	<path class="st1" d="M143.2,58.2c-7,0-11.3-4.2-11.3-11.4V26.3c0-7.3,4.2-11.4,11.2-11.4s11.3,4.2,11.3,11.4v12.2h-15.5v7.9
		c0,3.8,1.7,5.6,4.3,5.6s4.2-1.8,4.2-5.6V44h6.9v2.8C154.3,54,150.2,58.2,143.2,58.2z M147.3,26.7c0-3.8-1.6-5.6-4.2-5.6
		s-4.2,1.8-4.2,5.6v6.2h8.5v-6.2H147.3z"/>
	<path class="st1" d="M173.5,57.5c-0.2-1.1-0.4-2.2-0.5-3.3c-1.5,2.4-4.2,3.9-7.4,3.9c-4.2,0-8.6-3.3-8.6-10.4
		c0-6.9,2.8-10.2,8.7-13.2c4.7-2.4,6.8-3.8,6.8-8.5c0-2.8-0.8-5.1-3.5-5.1c-2.6,0-3.8,1.9-3.8,5.6V29h-6.9v-2.5
		c0-7.3,3.9-11.8,10.9-11.8c8.7,0,10.3,6,10.3,13.5v14.2c0,9.4,0.1,12,0.7,15L173.5,57.5L173.5,57.5z M172.6,36.4
		c-0.7,1-1.7,1.8-3.5,2.9c-3.3,2-4.8,3.8-4.8,7.7c0,3.7,1.6,5.1,3.8,5.1c2.6,0,4.5-2,4.5-6.4V36.4z"/>
	<path class="st1" d="M195.2,58.2c-6.9,0-10.7-4.2-10.7-11.4V26.3c0-7.3,3.8-11.5,10.7-11.5s10.7,4.2,10.7,11.4v2.9H199v-2.5
		c0-3.6-1.1-5.6-3.8-5.6c-2.6,0-3.8,2-3.8,5.6v19.7c0,3.6,1.1,5.6,3.8,5.6c2.6,0,3.8-2,3.8-5.6V44h6.9v2.8
		C205.9,54,202.1,58.2,195.2,58.2z"/>
	<path class="st1" d="M225.3,57.5V26.7c0-3.8-1.5-5.6-4-5.6s-4,1.8-4,5.6v30.9h-6.9V1h6.9v17.1c0.7-1.9,3.3-3.3,5.6-3.3
		c6.6,0,9.3,4.1,9.3,11.4v31.3H225.3z"/>
	<path class="st1" d="M237.8,9.3V1h6.9v8.3H237.8z M237.8,57.5v-42h6.9v42.1L237.8,57.5L237.8,57.5z"/>
	<path class="st1" d="M265.6,57.5V26.7c0-3.8-1.5-5.6-4-5.6s-4,1.8-4,5.6v30.9h-6.9V15.5h6.7v2.6c0.7-1.9,3.5-3.3,5.9-3.3
		c6.6,0,9.3,4.1,9.3,11.4v31.3H265.6z"/>
	<path class="st1" d="M289,73.5c-7,0-11.2-4.2-11.2-11.4V61h6.9v0.7c0,3.8,1.6,5.6,4.2,5.6s4.2-1.8,4.2-5.6V55
		c-0.7,1.9-3.5,3.3-5.9,3.3c-6.6,0-9.7-4.1-9.7-11.4V26.3c0-7.4,3.1-11.4,9.7-11.4c2.5,0,5.3,1.3,6.1,3.4v-2.8h6.7V62
		C300.2,69.3,296.1,73.5,289,73.5z M293.3,26.7c0-3.8-1.7-5.6-4.3-5.6c-2.6,0-4.3,1.8-4.3,5.6v19.7c0,3.8,1.7,5.6,4.3,5.6
		c2.6,0,4.3-1.8,4.3-5.6V26.7z"/>
	<path class="st0" d="M316.1,58.2c-7,0-11.1-4.2-11.1-11.4v-6h7v5.6c0,3.8,1.5,5.5,4.1,5.5s4.2-1.7,4.2-5.5V4.3h7v42.5
		C327.3,54,323.1,58.2,316.1,58.2z"/>
	<path class="st0" d="M343.7,58.2c-7,0-11.3-4.2-11.3-11.4V26.3c0-7.3,4.2-11.4,11.3-11.4c7,0,11.3,4.2,11.3,11.4v20.5
		C355,54,350.7,58.2,343.7,58.2z M348,26.7c0-3.8-1.7-5.6-4.3-5.6c-2.6,0-4.3,1.8-4.3,5.6v19.7c0,3.8,1.7,5.6,4.3,5.6
		c2.6,0,4.3-1.8,4.3-5.6V26.7z"/>
	<path class="st0" d="M373,58.2c-2.5,0-5.3-1.3-6.1-3.4v2.8h-6.7V1h6.9v17.1c0.7-1.9,3.5-3.3,5.9-3.3c6.6,0,9.7,4.1,9.7,11.4v20.5
		C382.7,54.1,379.6,58.2,373,58.2z M375.7,26.7c0-3.8-1.7-5.6-4.3-5.6c-2.6,0-4.3,1.8-4.3,5.6v19.7c0,3.8,1.7,5.6,4.3,5.6
		c2.6,0,4.3-1.8,4.3-5.6V26.7z"/>
	<path class="st0" d="M397.6,58.2c-7,0-11.3-4.2-11.3-11.4V44h6.9v2.4c0,3.8,1.7,5.6,4.3,5.6c2.5,0,4.4-1.6,4.4-5
		c0-2.3-0.5-3.5-2.7-5.2l-6.5-5.1c-3.7-2.9-5.8-5.4-5.8-10.6c0-7,3.7-11.2,10.5-11.2s10.7,4.2,10.7,11.4v2.9h-6.9v-2.5
		c0-3.5-1.2-5.6-3.8-5.6c-2.5,0-3.7,1.9-3.7,5c0,2.3,0.5,3.3,2.7,5.1l6.5,5.1c3.7,2.9,5.8,5.6,5.8,10.8
		C408.8,54,404.4,58.2,397.6,58.2z"/>
</g>
</svg>
